# xmcd
#
# Track frame offsets: 
#        182
#        23470
#        53692
#        74360
#        95362
#        117475
#        141477
#        157375
#
# Disc length: 2336 seconds
#
# Revision: 3
# Processed by: cddbd v1.5.2PL0 Copyright (c) Steve Scherf et al.
# Submitted via: ExactAudioCopy v0.95b4
#
DISCID=6f091e08
DTITLE=Yanni - Keys to Imagination
DYEAR=1986
DGENRE=New Age
TTITLE0=The North Shore of Matsushima
TTITLE1=Looking Glass
TTITLE2=Nostalgia
TTITLE3=Santorini
TTITLE4=Port of Mystery
TTITLE5=Keys to Imagination
TTITLE6=Forgotten Yesterdays
TTITLE7=Forbidden Dream
EXTD=YEAR: 1986
EXTT0=
EXTT1=
EXTT2=
EXTT3=
EXTT4=
EXTT5=
EXTT6=
EXTT7=
PLAYORDER=
